name C:\Users\antoi\Documents\MyRepositories\predsim_tutorial\Results\Case_0\GRF.mot
datacolumns 19
datarows 17
range 0.36674786 0.54456501
endheader 
time	r_ground_force_vx	r_ground_force_vy	r_ground_force_vz	r_ground_force_px	r_ground_force_py	r_ground_force_pz	l_ground_force_vx	l_ground_force_vy	l_ground_force_vz	l_ground_force_px	l_ground_force_py	l_ground_force_pz	r_ground_torque_x	r_ground_torque_y	r_ground_torque_z	l_ground_torque_x	l_ground_torque_y	l_ground_torque_z	
          0.36674786	         18.98371271	        512.90997966	        -16.57450315	          0.36648527	          0.00000000	          0.05266437	          0.00000000	          0.00000000	          0.00000000	          0.00000000	          0.00000000	          0.00000000	          0.00000000	          1.39127260	          0.00000000	          0.00000000	          0.00000000	          0.00000000	
          0.37786144	         22.86114524	        517.06407950	        -17.39106963	          0.37076112	          0.00000000	          0.05343592	          0.00000000	          0.00000000	          0.00000000	          0.00000000	          0.00000000	          0.00000000	          0.00000000	          1.63528774	          0.00000000	          0.00000000	          0.00000000	          0.00000000	
          0.38897501	         27.07747670	        523.26741831	        -18.51095605	          0.37485989	          0.00000000	          0.05416118	          0.00000000	          0.00000000	          0.00000000	          0.00000000	          0.00000000	          0.00000000	          0.00000000	          1.90856333	          0.00000000	          0.00000000	          0.00000000	          0.00000000	
          0.40008858	         31.36651490	        531.60580542	        -19.58012554	          0.37872664	          0.00000000	          0.05481629	          0.00000000	          0.00000000	          0.00000000	          0.00000000	          0.00000000	          0.00000000	          0.00000000	          2.22056148	          0.00000000	          0.00000000	          0.00000000	          0.00000000	
          0.41120215	         35.93917209	        542.53963184	        -20.26572594	          0.38226002	          0.00000000	          0.05539080	          0.00000000	          0.00000000	          0.00000000	          0.00000000	          0.00000000	          0.00000000	          0.00000000	          2.53993241	          0.00000000	          0.00000000	          0.00000000	          0.00000000	
          0.42231572	         40.94259954	        556.51551059	        -20.37316850	          0.38534354	          0.00000000	          0.05586638	          0.00000000	          0.00000000	          0.00000000	          0.00000000	          0.00000000	          0.00000000	          0.00000000	          2.86496780	          0.00000000	          0.00000000	          0.00000000	          0.00000000	
          0.43342929	         46.57645876	        573.02811996	        -20.05292991	          0.38801915	          0.00000000	          0.05624473	          0.00000000	          0.00000000	          0.00000000	          0.00000000	          0.00000000	          0.00000000	          0.00000000	          3.18377035	          0.00000000	          0.00000000	          0.00000000	          0.00000000	
          0.44454286	         52.53909413	        591.11483975	        -19.48816738	          0.39060531	          0.00000000	          0.05654646	          0.00000000	          0.00000000	          0.00000000	          0.00000000	          0.00000000	          0.00000000	          0.00000000	          3.45472515	          0.00000000	          0.00000000	          0.00000000	          0.00000000	
          0.45565644	         58.40468835	        609.60155252	        -18.41038153	          0.39328402	          0.00000000	          0.05680233	          0.00000000	          0.00000000	          0.00000000	          0.00000000	          0.00000000	          0.00000000	          0.00000000	          3.65614319	          0.00000000	          0.00000000	          0.00000000	          0.00000000	
          0.46677001	         63.85545144	        627.43866033	        -17.85031693	          0.39602465	          0.00000000	          0.05702148	          0.00000000	          0.00000000	          0.00000000	          0.00000000	          0.00000000	          0.00000000	          0.00000000	          3.82021419	          0.00000000	          0.00000000	          0.00000000	          0.00000000	
          0.47788358	         69.12922423	        640.36780760	        -17.84435469	          0.39878646	          0.00000000	          0.05722112	          0.00000000	          0.00000000	          0.00000000	          0.00000000	          0.00000000	          0.00000000	          0.00000000	          4.00307494	          0.00000000	          0.00000000	          0.00000000	          0.00000000	
          0.48899715	         74.84391278	        645.95554606	        -18.06507662	          0.40152258	          0.00000000	          0.05745435	          0.00000000	          0.00000000	          0.00000000	          0.00000000	          0.00000000	          0.00000000	          0.00000000	          4.22490264	          0.00000000	          0.00000000	          0.00000000	          0.00000000	
          0.50011072	         81.07982892	        642.64062203	        -17.60546345	          0.40430407	          0.00000000	          0.05776568	          0.00000000	          0.00000000	          0.00000000	          0.00000000	          0.00000000	          0.00000000	          0.00000000	          4.44481777	          0.00000000	          0.00000000	          0.00000000	          0.00000000	
          0.51122429	         87.12906049	        628.22340010	        -16.34958414	          0.40748894	          0.00000000	          0.05820411	          0.00000000	          0.00000000	          0.00000000	          0.00000000	          0.00000000	          0.00000000	          0.00000000	          4.57301867	          0.00000000	          0.00000000	          0.00000000	          0.00000000	
          0.52233787	         88.56312033	        603.61631198	        -14.67755013	          0.41126428	          0.00000000	          0.05877370	          0.00000000	          0.00000000	          0.00000000	          0.00000000	          0.00000000	          0.00000000	          0.00000000	          4.62239610	          0.00000000	          0.00000000	          0.00000000	          0.00000000	
          0.53345144	         87.88814654	        566.33180855	        -12.47005218	          0.41588093	          0.00000000	          0.05956750	          0.00000000	          0.00000000	          0.00000000	          0.00000000	          0.00000000	          0.00000000	          0.00000000	          4.53688676	          0.00000000	          0.00000000	          0.00000000	          0.00000000	
          0.54456501	         82.80430164	        517.73361037	        -10.02970687	          0.42153036	          0.00000000	          0.06077900	          0.00000000	          0.00000000	          0.00000000	          0.00000000	          0.00000000	          0.00000000	          0.00000000	          4.24272759	          0.00000000	          0.00000000	          0.00000000	          0.00000000	
